<?xml version="1.0" encoding="utf-8"?>
<!-- Generator: Adobe Illustrator 22.1.0, SVG Export Plug-In . SVG Version: 6.00 Build 0)  -->
<svg version="1.1" xmlns="http://www.w3.org/2000/svg" xmlns:xlink="http://www.w3.org/1999/xlink" x="0px" y="0px"
	 viewBox="0 0 900 900" style="enable-background:new 0 0 900 900;" xml:space="preserve">
<style type="text/css">
	.st0{fill:#44425E;}
	.st1{fill:#A6529A;}
	.st2{fill:#A85FA3;}
	.st3{fill:none;}
	.st4{display:none;}
</style>
<g id="Слой_4">
	<path class="st0" d="M860,880H40c-11,0-20-9-20-20V40c0-11,9-20,20-20h820c11,0,20,9,20,20v820C880,871,871,880,860,880z"/>
</g>
<g id="Слой_1">
	<path class="st1" d="M890,610H10c-5.5,0-10-4.5-10-10l0,0c0-5.5,4.5-10,10-10h880c5.5,0,10,4.5,10,10l0,0
		C900,605.5,895.5,610,890,610z"/>
	<path class="st1" d="M890,310H10c-5.5,0-10-4.5-10-10l0,0c0-5.5,4.5-10,10-10h880c5.5,0,10,4.5,10,10l0,0
		C900,305.5,895.5,310,890,310z"/>
	<path class="st2" d="M290,890V10c0-5.5,4.5-10,10-10l0,0c5.5,0,10,4.5,10,10v880c0,5.5-4.5,10-10,10l0,0
		C294.5,900,290,895.5,290,890z"/>
	<path class="st1" d="M590,890V10c0-5.5,4.5-10,10-10l0,0c5.5,0,10,4.5,10,10v880c0,5.5-4.5,10-10,10l0,0
		C594.5,900,590,895.5,590,890z"/>
</g>
<g id="Слой_3">
	<rect y="0" class="st3" width="900" height="900"/>
</g>
<g id="Слой_2" class="st4">
</g>
</svg>
