<?xml version="1.0" encoding="utf-8"?>
<!-- Generator: Adobe Illustrator 22.1.0, SVG Export Plug-In . SVG Version: 6.00 Build 0)  -->
<svg version="1.1" xmlns="http://www.w3.org/2000/svg" xmlns:xlink="http://www.w3.org/1999/xlink" x="0px" y="0px"
	 viewBox="0 0 900 900" style="enable-background:new 0 0 900 900;" xml:space="preserve">
<style type="text/css">
	.st0{fill:#C4C4C4;}
	.st1{fill:none;}
</style>
<g id="Слой_1">
	<path class="st0" d="M122.8,123.3L122.8,123.3c12.9-12.9,33.8-12.9,46.7,0L776.2,730c12.9,12.9,12.9,33.8,0,46.7l0,0
		c-12.9,12.9-33.8,12.9-46.7,0L122.8,170C109.9,157.1,109.9,136.2,122.8,123.3z"/>
	<path class="st0" d="M776.7,121.3L776.7,121.3c12.9,12.9,12.9,33.8,0,46.7L170,774.7c-12.9,12.9-33.8,12.9-46.7,0l0,0
		c-12.9-12.9-12.9-33.8,0-46.7L730,121.3C742.9,108.4,763.8,108.4,776.7,121.3z"/>
</g>
<g id="Слой_2">
	<rect class="st1" width="900" height="900"/>
</g>
</svg>
